<?xml version="1.0" encoding="UTF-8"?>
<svg width="36px" height="35px" viewBox="0 0 36 35" version="1.1" xmlns="http://www.w3.org/2000/svg" xmlns:xlink="http://www.w3.org/1999/xlink">
    <!-- Generator: sketchtool 62 (101010) - https://sketch.com -->
    <title>15EF5896-D2E8-4C1D-853B-27DC08C7E179</title>
    <desc>Created with sketchtool.</desc>
    <g id="Asset-Artboard-Page" stroke="none" stroke-width="1" fill="none" fill-rule="evenodd">
        <g id="ICONS-/-USER-/-ALL-/-3D" transform="translate(0.694445, 0.000000)" fill="#F3A089">
            <g id="Group-13">
                <path d="M31.4993,0.437149994 C33.1915225,0.437149994 34.5618,1.80837446 34.5618,3.49964999 L34.5618,3.49964999 L34.5618,23.05065 C34.5618,24.3268339 34.0556067,25.5512486 33.1535064,26.4533488 L33.1535064,26.4533488 L26.4528776,33.1522276 C25.5504932,34.0546121 24.3259068,34.56215 23.0503,34.56215 L23.0503,34.56215 L3.49929999,34.56215 C1.80802446,34.56215 0.436799988,33.1918725 0.436799988,31.49965 L0.436799988,31.49965 L0.436799988,11.94865 C0.436799988,10.6730432 0.944337881,9.4484568 1.84684355,8.54595115 L1.84684355,8.54595115 L8.54747234,1.84707234 C9.4498568,0.944687887 10.6744432,0.437149994 11.95005,0.437149994 L11.95005,0.437149994 Z M23.1868,24.06215 L11.1228,24.06215 L4.70279999,31.93715 L23.0503,31.93715 C23.0962218,31.93715 23.1420036,31.935699 23.1875837,31.9328226 L23.1868,24.06215 Z M25.81075,24.06075 L25.8108,30.08115 L31.2974723,24.5970723 C31.4556799,24.4388648 31.5871128,24.258642 31.6888285,24.0635234 L25.81075,24.06075 Z M9.18679999,13.56115 L3.06179999,13.56115 L3.06179999,29.79415 L9.18679999,22.28215 L9.18679999,13.56115 Z M31.9368,5.20514999 L25.8118,12.71615 L25.8118,21.43715 L31.9368,21.43715 L31.9368,5.20514999 Z M23.1875001,13.5624996 L11.8125001,13.5624996 L11.8125001,21.4374996 L23.1875001,21.4374996 L23.1875001,13.5624996 Z M30.2978,3.06214999 L11.95005,3.06214999 C11.903793,3.06214999 11.857678,3.06362223 11.8117682,3.06654057 L11.8118,10.93715 L23.8748,10.93715 L30.2978,3.06214999 Z M9.18579999,4.91914999 L3.70287764,10.4022276 C3.54455364,10.5605516 3.41295018,10.7407292 3.31102385,10.9356055 L9.18574999,10.9357502 L9.18579999,4.91914999 Z" id="Combined-Shape"></path>
            </g>
        </g>
    </g>
</svg>